<?xml version="1.0" encoding="UTF-8" standalone="no"?>
<svg
   xmlns:dc="http://purl.org/dc/elements/1.1/"
   xmlns:cc="http://creativecommons.org/ns#"
   xmlns:rdf="http://www.w3.org/1999/02/22-rdf-syntax-ns#"
   xmlns:svg="http://www.w3.org/2000/svg"
   xmlns="http://www.w3.org/2000/svg"
   xmlns:sodipodi="http://sodipodi.sourceforge.net/DTD/sodipodi-0.dtd"
   xmlns:inkscape="http://www.inkscape.org/namespaces/inkscape"
   viewBox="0 0 48 48"
   version="1.1"
   id="svg4646"
   sodipodi:docname="wait.svg"
   inkscape:version="0.92.1 r15371">
  <metadata
     id="metadata4650">
    <rdf:RDF>
      <cc:Work
         rdf:about="">
        <dc:format>image/svg+xml</dc:format>
        <dc:type
           rdf:resource="http://purl.org/dc/dcmitype/StillImage" />
        <dc:title />
      </cc:Work>
    </rdf:RDF>
  </metadata>
  <sodipodi:namedview
     pagecolor="#ffffff"
     bordercolor="#666666"
     borderopacity="1"
     objecttolerance="10"
     gridtolerance="10"
     guidetolerance="10"
     inkscape:pageopacity="0"
     inkscape:pageshadow="2"
     inkscape:window-width="1920"
     inkscape:window-height="944"
     id="namedview4648"
     showgrid="false"
     inkscape:zoom="6.9532167"
     inkscape:cx="25.058057"
     inkscape:cy="-1.8369622"
     inkscape:window-x="0"
     inkscape:window-y="31"
     inkscape:window-maximized="1"
     inkscape:current-layer="g4644" />
  <defs
     id="defs4638">
    <linearGradient
       id="0"
       gradientUnits="userSpaceOnUse"
       y1="47.85"
       x2="0"
       y2="-2.292">
      <stop
         stop-color="#4da70e"
         id="stop4633" />
      <stop
         offset="1"
         stop-color="#9ded46"
         id="stop4635" />
    </linearGradient>
  </defs>
  <g
     transform="matrix(.92307 0 0 .92307-24.891 2.712)"
     enable-background="new"
     id="g4644"
     style="fill-opacity:1;opacity:1;fill-rule:nonzero">
    <circle
       r="26"
       cy="23.07"
       cx="52.97"
       fill="url(#0)"
       id="circle4640"
       style="fill-opacity:1;fill-rule:nonzero;fill:#ff7f2a" />
    <g
       id="g4489"
       transform="matrix(0.00274835,0,0,-0.00308637,41.224448,43.189735)"
       style="fill:#ffffff;stroke:none">
      <path
         id="path4487"
         d="m 37,12538 c 12,-811 95,-1332 310,-1928 357,-993 1025,-1875 2139,-2827 270,-230 748,-607 1197,-943 142,-106 175,-136 165,-145 -7,-7 -103,-81 -213,-166 C 2801,5889 2205,5354 1724,4815 721,3689 173,2469 35,1055 12,814 0,544 0,258 V 0 h 4400 4400 l -5,307 c -9,510 -30,801 -81,1145 -172,1162 -640,2199 -1423,3152 -505,616 -1136,1202 -2066,1921 -122,93 -221,175 -221,180 0,6 111,93 246,195 730,551 1177,920 1591,1316 1018,972 1601,1941 1840,3057 83,390 119,767 119,1248 v 279 H 4416 33 Z m 8073,-462 c 0,-55 -26,-290 -45,-416 -130,-828 -473,-1567 -1059,-2280 -86,-104 -264,-306 -299,-339 -40,-36 -608,-220 -1027,-331 -897,-240 -1538,-257 -2340,-64 -292,70 -731,209 -1092,346 l -107,41 -104,116 c -622,693 -991,1353 -1182,2115 -63,253 -125,647 -125,802 v 54 H 4420 8110 Z M 4513,6218 c 507,-383 940,-735 1297,-1052 180,-159 648,-628 789,-791 690,-791 1118,-1585 1341,-2488 28,-115 49,-211 46,-214 -2,-3 -100,76 -218,174 -793,666 -1366,1116 -1763,1385 -1225,831 -1932,834 -3160,13 -416,-278 -999,-732 -1827,-1422 -115,-95 -208,-170 -208,-165 0,37 106,422 165,597 382,1145 1123,2137 2377,3182 294,245 1057,843 1075,843 2,0 41,-28 86,-62 z"
         inkscape:connector-curvature="0"
         style="fill:#ffffff" />
    </g>
  </g>
</svg>
