<?xml version="1.0" encoding="UTF-8" standalone="no"?>
<svg
   xmlns:dc="http://purl.org/dc/elements/1.1/"
   xmlns:cc="http://creativecommons.org/ns#"
   xmlns:rdf="http://www.w3.org/1999/02/22-rdf-syntax-ns#"
   xmlns:svg="http://www.w3.org/2000/svg"
   xmlns="http://www.w3.org/2000/svg"
   xmlns:sodipodi="http://sodipodi.sourceforge.net/DTD/sodipodi-0.dtd"
   xmlns:inkscape="http://www.inkscape.org/namespaces/inkscape"
   viewBox="0 0 48 48"
   version="1.1"
   id="svg4646"
   sodipodi:docname="wait.svg"
   inkscape:version="0.92.1 r15371">
  <metadata
     id="metadata4650">
    <rdf:RDF>
      <cc:Work
         rdf:about="">
        <dc:format>image/svg+xml</dc:format>
        <dc:type
           rdf:resource="http://purl.org/dc/dcmitype/StillImage" />
        <dc:title></dc:title>
      </cc:Work>
    </rdf:RDF>
  </metadata>
  <sodipodi:namedview
     pagecolor="#ffffff"
     bordercolor="#666666"
     borderopacity="1"
     objecttolerance="10"
     gridtolerance="10"
     guidetolerance="10"
     inkscape:pageopacity="0"
     inkscape:pageshadow="2"
     inkscape:window-width="1920"
     inkscape:window-height="944"
     id="namedview4648"
     showgrid="false"
     inkscape:zoom="6.9532167"
     inkscape:cx="63.704916"
     inkscape:cy="12.588436"
     inkscape:window-x="0"
     inkscape:window-y="31"
     inkscape:window-maximized="1"
     inkscape:current-layer="g4644" />
  <defs
     id="defs4638">
    <linearGradient
       id="0"
       gradientUnits="userSpaceOnUse"
       y1="47.85"
       x2="0"
       y2="-2.292">
      <stop
         stop-color="#4da70e"
         id="stop4633" />
      <stop
         offset="1"
         stop-color="#9ded46"
         id="stop4635" />
    </linearGradient>
  </defs>
  <g
     transform="matrix(.92307 0 0 .92307-24.891 2.712)"
     enable-background="new"
     id="g4644"
     style="fill-opacity:1;opacity:1;fill-rule:nonzero">
    <circle
       r="26"
       cy="23.07"
       cx="52.97"
       fill="url(#0)"
       id="circle4640"
       style="fill-opacity:1;fill-rule:nonzero;fill:#ff7f2a" />
    <path
       style="fill:#ffffff;stroke-width:0.03849848"
       d="m 36.950694,42.122342 c -0.0202,-0.06212 -0.08875,-1.092745 -0.117147,-1.761305 -0.02574,-0.605907 0.03181,-2.017583 0.113811,-2.791901 0.377702,-3.566496 1.596844,-6.852981 3.581405,-9.654524 1.175564,-1.659507 2.753665,-3.220457 4.318795,-4.271856 0.259784,-0.174513 0.472334,-0.325959 0.472334,-0.336546 0,-0.01059 -0.211539,-0.161677 -0.470087,-0.335754 C 43.550618,22.095729 42.225058,20.860114 41.162507,19.533359 38.823461,16.612705 37.364633,12.982197 36.947337,9.0432837 36.810753,7.7540523 36.801451,6.0297708 36.924071,4.7306928 l 0.02544,-0.2694894 16.385223,-0.00967 16.385225,-0.00967 0.0525,0.6641436 c 0.0649,0.8212691 0.0659,2.5924622 0.002,3.339788 -0.15931,1.859562 -0.47377,3.414669 -1.0237,5.06255 -0.68215,2.0441 -1.61414,3.845441 -2.84836,5.505283 -1.19943,1.613061 -2.784018,3.128997 -4.270049,4.085049 -0.16096,0.103555 -0.292655,0.196945 -0.292655,0.207532 0,0.01059 0.131695,0.103976 0.292655,0.207531 1.486031,0.956052 3.070619,2.471989 4.270049,4.085049 2.09711,2.820313 3.39976,6.210842 3.80792,9.911238 0.10048,0.910937 0.14237,2.259938 0.099,3.186466 -0.0394,0.840667 -0.0672,1.225583 -0.10036,1.38735 l -0.0177,0.08662 H 53.328675 c -13.055856,0 -16.365496,-0.0097 -16.377981,-0.04812 z m 29.338105,-3.022131 c -0.0659,-1.742907 -0.25924,-3.137163 -0.64382,-4.643289 -0.91812,-3.595551 -2.805176,-6.462243 -5.384635,-8.179985 -0.478988,-0.318973 -1.515777,-0.860204 -1.93491,-1.010072 l -0.260225,-0.09305 0.01,-1.863242 0.01,-1.863242 0.346487,-0.141706 c 3.496175,-1.429866 6.078343,-4.705367 7.213313,-9.150129 0.38634,-1.512998 0.57761,-2.8924281 0.64382,-4.643289 l 0.0273,-0.7218465 H 53.330521 40.344944 l 0.02723,0.7410958 c 0.07104,1.9331856 0.329685,3.6020557 0.812962,5.2454177 1.214394,4.129499 3.686472,7.132171 7.00593,8.509645 l 0.384985,0.159757 0.01,1.864015 0.01,1.864015 -0.202478,0.07047 c -0.340521,0.118523 -1.257027,0.574861 -1.696849,0.844879 -2.719463,1.66955 -4.724241,4.622578 -5.680441,8.367262 -0.385147,1.50832 -0.581675,2.923816 -0.644674,4.643289 l -0.02645,0.721847 H 53.330616 66.316099 Z M 44.115536,37.310032 c 0.659015,-3.643185 2.522377,-6.560951 5.22097,-8.175309 0.655987,-0.392426 1.050006,-0.688353 1.454447,-1.092358 0.613033,-0.612372 0.977624,-1.241228 1.205777,-2.07976 l 0.120461,-0.442733 V 23.30621 21.092547 L 51.99686,20.64725 c -0.06618,-0.244914 -0.1829,-0.580719 -0.259373,-0.746234 -0.407269,-0.881481 -1.222754,-1.736282 -2.194262,-2.30005 -1.416265,-0.821862 -2.526037,-1.87492 -3.481782,-3.303848 l -0.270075,-0.403787 3.769624,-0.0098 c 2.073293,-0.0054 5.465928,-0.0054 7.539189,0 l 3.769565,0.0098 -0.275827,0.412309 c -0.950459,1.420756 -1.959925,2.380404 -3.451953,3.281592 -1.406448,0.8495 -2.194011,1.84988 -2.515335,3.19504 -0.0804,0.336578 -0.08329,0.425505 -0.08281,2.543187 l 5e-4,2.194413 0.120323,0.442733 c 0.228407,0.840434 0.59078,1.464131 1.206524,2.076598 0.408356,0.406184 0.737065,0.653067 1.472192,1.105719 0.269572,0.165987 0.633971,0.408209 0.809776,0.538269 1.836063,1.358323 3.294091,3.558059 4.032818,6.084341 0.12013,0.410819 0.384301,1.545073 0.384301,1.65005 0,0.0097 -4.157403,0.01757 -9.238675,0.01757 h -9.238675 z"
       id="path980"
       inkscape:connector-curvature="0" />
  </g>
</svg>
